<svg width="38" height="54" viewBox="0 0 38 54" fill="none" xmlns="http://www.w3.org/2000/svg">
<path d="M19.037 24.175C18.787 24.15 18.487 24.15 18.212 24.175C12.2621 23.975 7.53711 19.1 7.53711 13.1C7.53711 6.975 12.4871 2 18.637 2C24.762 2 29.737 6.975 29.737 13.1C29.712 19.1 24.987 23.975 19.037 24.175Z" stroke="#CECECE" stroke-width="3.75" stroke-linecap="round" stroke-linejoin="round"/>
<path d="M6.5375 33.4C0.4875 37.45 0.4875 44.05 6.5375 48.075C13.4125 52.675 24.6875 52.675 31.5625 48.075C37.6125 44.025 37.6125 37.425 31.5625 33.4C24.7125 28.825 13.4375 28.825 6.5375 33.4Z" stroke="#CECECE" stroke-width="3.75" stroke-linecap="round" stroke-linejoin="round"/>
</svg>
