<svg width="20" height="39" viewBox="0 0 20 39" fill="none" xmlns="http://www.w3.org/2000/svg">
<path d="M17.2727 8.86364V29.25C17.2727 33.1677 14.0182 36.3409 10 36.3409C5.98182 36.3409 2.72727 33.1677 2.72727 29.25V7.09091C2.72727 4.64455 4.76364 2.65909 7.27273 2.65909C9.78182 2.65909 11.8182 4.64455 11.8182 7.09091V25.7045C11.8182 26.6795 11 27.4773 10 27.4773C9 27.4773 8.18182 26.6795 8.18182 25.7045V8.86364H5.45455V25.7045C5.45455 28.1509 7.49091 30.1364 10 30.1364C12.5091 30.1364 14.5455 28.1509 14.5455 25.7045V7.09091C14.5455 3.17318 11.2909 0 7.27273 0C3.25455 0 0 3.17318 0 7.09091V29.25C0 34.6391 4.47273 39 10 39C15.5273 39 20 34.6391 20 29.25V8.86364H17.2727Z" fill="#FF621E"/>
</svg>
